<svg width="16" height="17" viewBox="0 0 16 17" fill="none" xmlns="http://www.w3.org/2000/svg">
<mask id="mask0_3_13289" style="mask-type:alpha" maskUnits="userSpaceOnUse" x="0" y="0" width="16" height="17">
<rect width="16" height="16" transform="matrix(-1 8.74228e-08 8.74228e-08 1 16 0.603516)" fill="#D9D9D9"/>
</mask>
<g mask="url(#mask0_3_13289)">
<path d="M10.5442 6.73102L10.5442 11.2702C10.5442 11.5156 10.6301 11.7242 10.8019 11.8959C10.9736 12.0676 11.1822 12.1535 11.4275 12.1535C11.673 12.1535 11.8816 12.0676 12.0534 11.8959C12.225 11.7242 12.3109 11.5156 12.3109 11.2702L12.3109 4.60352C12.3109 4.35807 12.225 4.14952 12.0534 3.97785C11.8816 3.80607 11.673 3.72018 11.4275 3.72018L4.76085 3.72018C4.51552 3.72019 4.30696 3.80607 4.13519 3.97785C3.96341 4.14952 3.87752 4.35807 3.87752 4.60352C3.87752 4.84896 3.96341 5.05752 4.13519 5.22918C4.30696 5.40096 4.51552 5.48685 4.76085 5.48685L9.30002 5.48685L3.73402 11.0529C3.56158 11.2253 3.47535 11.4311 3.47535 11.6702C3.47535 11.9093 3.56158 12.1151 3.73402 12.2875C3.90658 12.4601 4.11396 12.5464 4.35619 12.5464C4.59841 12.5464 4.8058 12.4601 4.97835 12.2875L10.5442 6.73102Z" fill="#007AFF"/>
</g>
</svg>
