<svg width="26" height="27" viewBox="0 0 26 27" fill="none" xmlns="http://www.w3.org/2000/svg">
<rect x="26" y="26.6035" width="26" height="26" rx="13" transform="rotate(-180 26 26.6035)" fill="white"/>
<mask id="mask0_0_4787" style="mask-type:alpha" maskUnits="userSpaceOnUse" x="5" y="5" width="16" height="17">
<rect width="16" height="16" transform="matrix(-1 8.74228e-08 8.74228e-08 1 21 5.60352)" fill="#D9D9D9"/>
</mask>
<g mask="url(#mask0_0_4787)">
<path d="M15.5442 11.731L15.5442 16.2702C15.5442 16.5156 15.6301 16.7242 15.8019 16.8959C15.9736 17.0676 16.1822 17.1535 16.4275 17.1535C16.673 17.1535 16.8816 17.0676 17.0534 16.8959C17.225 16.7242 17.3109 16.5156 17.3109 16.2702L17.3109 9.60352C17.3109 9.35807 17.225 9.14952 17.0534 8.97785C16.8816 8.80607 16.673 8.72018 16.4275 8.72018L9.76085 8.72018C9.51552 8.72019 9.30696 8.80607 9.13519 8.97785C8.96341 9.14952 8.87752 9.35807 8.87752 9.60352C8.87752 9.84896 8.96341 10.0575 9.13519 10.2292C9.30696 10.401 9.51552 10.4869 9.76085 10.4869L14.3 10.4869L8.73402 16.0529C8.56158 16.2253 8.47535 16.4311 8.47535 16.6702C8.47535 16.9093 8.56158 17.1151 8.73402 17.2875C8.90658 17.4601 9.11396 17.5464 9.35619 17.5464C9.59841 17.5464 9.8058 17.4601 9.97835 17.2875L15.5442 11.731Z" fill="#007AFF"/>
</g>
</svg>
