<svg width="33" height="33" viewBox="0 0 33 33" fill="none" xmlns="http://www.w3.org/2000/svg">
<path d="M16.6895 16.2913C13.0095 16.2913 10.0228 19.2779 10.0228 22.9579C10.0228 23.9446 10.2361 24.8779 10.6361 25.7046C10.7428 25.9446 10.8628 26.1713 10.9961 26.3846C12.1428 28.3179 14.2628 29.6246 16.6895 29.6246C19.1161 29.6246 21.2361 28.3179 22.3828 26.3846C22.5161 26.1713 22.6361 25.9446 22.7428 25.7046C23.1428 24.8779 23.3561 23.9446 23.3561 22.9579C23.3561 19.2779 20.3695 16.2913 16.6895 16.2913ZM19.4495 22.3846L16.6095 25.0113C16.4228 25.1846 16.1695 25.2779 15.9295 25.2779C15.6761 25.2779 15.4228 25.1846 15.2228 24.9846L13.9028 23.6646C13.5161 23.2779 13.5161 22.6379 13.9028 22.2513C14.2895 21.8646 14.9295 21.8646 15.3161 22.2513L15.9561 22.8913L18.0895 20.9179C18.5028 20.5446 19.1295 20.5713 19.5028 20.9713C19.8761 21.3713 19.8495 21.9979 19.4495 22.3846Z" fill="#1F2937"/>
<path d="M27.6228 23.6764C27.1428 24.103 26.6228 24.463 26.0628 24.7564C25.5828 24.9964 25.1028 24.5297 25.1828 23.9964C25.2361 23.6097 25.2628 23.2097 25.2628 22.7964C25.2628 18.023 21.3694 14.1297 16.5961 14.1297C11.8228 14.1297 7.92944 18.023 7.92944 22.7964C7.92944 23.4097 7.99611 23.9964 8.11611 24.5697C8.20944 25.0364 7.84944 25.503 7.38277 25.383C2.11611 24.103 2.08944 15.9964 7.98277 15.583H8.04944C3.76944 3.67638 21.8228 -1.08362 23.8894 11.423C29.6628 12.1564 31.9961 19.8497 27.6228 23.6764Z" fill="#1F2937"/>
</svg>
