<svg width="33" height="33" viewBox="0 0 33 33" fill="none" xmlns="http://www.w3.org/2000/svg">
<path d="M23.3561 3.58472H11.3561C8.40946 3.58472 6.02279 5.97138 6.02279 8.91805V18.5847C6.02279 19.3181 6.62279 19.9181 7.35612 19.9181H27.3561C28.0895 19.9181 28.6895 19.3181 28.6895 18.5847V8.91805C28.6895 5.97138 26.3028 3.58472 23.3561 3.58472ZM11.3561 17.9181H10.0228C9.47612 17.9181 9.02279 17.4647 9.02279 16.9181C9.02279 16.3714 9.47612 15.9181 10.0228 15.9181H11.3561C11.9028 15.9181 12.3561 16.3714 12.3561 16.9181C12.3561 17.4647 11.9028 17.9181 11.3561 17.9181ZM11.3561 14.5847H10.0228C9.47612 14.5847 9.02279 14.1314 9.02279 13.5847C9.02279 13.0381 9.47612 12.5847 10.0228 12.5847H11.3561C11.9028 12.5847 12.3561 13.0381 12.3561 13.5847C12.3561 14.1314 11.9028 14.5847 11.3561 14.5847ZM11.3561 11.2514H10.0228C9.47612 11.2514 9.02279 10.7981 9.02279 10.2514C9.02279 9.70472 9.47612 9.25138 10.0228 9.25138H11.3561C11.9028 9.25138 12.3561 9.70472 12.3561 10.2514C12.3561 10.7981 11.9028 11.2514 11.3561 11.2514Z" fill="#1F2937"/>
<path d="M6.02279 23.2513V24.918C6.02279 27.8646 8.40946 30.2513 11.3561 30.2513H23.3561C26.3028 30.2513 28.6895 27.8646 28.6895 24.918V23.2513C28.6895 22.518 28.0895 21.918 27.3561 21.918H7.35612C6.62279 21.918 6.02279 22.518 6.02279 23.2513ZM24.3028 26.8646C24.0495 27.1046 23.7028 27.2513 23.3561 27.2513C23.0095 27.2513 22.6628 27.1046 22.4095 26.8646C22.1695 26.6113 22.0228 26.2646 22.0228 25.918C22.0228 25.5713 22.1695 25.2246 22.4095 24.9713C22.9028 24.478 23.7961 24.478 24.3028 24.9713C24.5428 25.2246 24.6895 25.5713 24.6895 25.918C24.6895 26.2646 24.5428 26.6113 24.3028 26.8646Z" fill="#1F2937"/>
</svg>
