<svg width="33" height="33" viewBox="0 0 33 33" fill="none" xmlns="http://www.w3.org/2000/svg">
<path d="M17.5926 27.5263C17.9589 27.6115 17.9925 28.0913 17.6357 28.2102L15.529 28.9036C10.2357 30.6102 7.44904 29.1836 5.72904 23.8902L4.02237 18.6236C2.31571 13.3302 3.72904 10.5302 9.02237 8.82355L10.0597 8.48002C10.4626 8.34661 10.8503 8.74899 10.7278 9.15533C10.6158 9.52729 10.5107 9.92337 10.409 10.3436L9.10237 15.9302C7.6357 22.2102 9.78237 25.6769 16.0624 27.1702L17.5926 27.5263Z" fill="#1F2937"/>
<path d="M23.583 5.19961L21.3564 4.67961C16.903 3.62627 14.2497 4.49294 12.6897 7.71961C12.2897 8.53294 11.9697 9.51961 11.703 10.6529L10.3964 16.2396C9.0897 21.8129 10.8097 24.5596 16.3697 25.8796L18.6097 26.4129C19.383 26.5996 20.103 26.7196 20.7697 26.7729C24.9297 27.1729 27.143 25.2263 28.263 20.4129L29.5697 14.8396C30.8764 9.26627 29.1697 6.50627 23.583 5.19961ZM21.0764 18.6929C20.9564 19.1463 20.5564 19.4396 20.103 19.4396C20.023 19.4396 19.943 19.4263 19.8497 19.4129L15.9697 18.4263C15.4364 18.2929 15.1164 17.7463 15.2497 17.2129C15.383 16.6796 15.9297 16.3596 16.463 16.4929L20.343 17.4796C20.8897 17.6129 21.2097 18.1596 21.0764 18.6929ZM24.983 14.1863C24.863 14.6396 24.463 14.9329 24.0097 14.9329C23.9297 14.9329 23.8497 14.9196 23.7564 14.9063L17.2897 13.2663C16.7564 13.1329 16.4364 12.5863 16.5697 12.0529C16.703 11.5196 17.2497 11.1996 17.783 11.3329L24.2497 12.9729C24.7964 13.0929 25.1164 13.6396 24.983 14.1863Z" fill="#1F2937"/>
</svg>
