<svg width="33" height="33" viewBox="0 0 33 33" fill="none" xmlns="http://www.w3.org/2000/svg">
<path d="M24.6895 3.58472H8.68945C6.47612 3.58472 4.68945 5.35805 4.68945 7.54472V22.0914C4.68945 24.2781 6.47612 26.0647 8.68945 26.0647H9.70279C10.7561 26.0647 11.7828 26.4781 12.5295 27.2247L14.8095 29.4781C15.8495 30.5047 17.5295 30.5047 18.5695 29.4781L20.8495 27.2247C21.5961 26.4781 22.6228 26.0647 23.6761 26.0647H24.6895C26.9028 26.0647 28.6895 24.2781 28.6895 22.0914V7.54472C28.6895 5.35805 26.9028 3.58472 24.6895 3.58472ZM16.6895 8.31805C18.1295 8.31805 19.2895 9.49138 19.2895 10.9181C19.2895 12.3314 18.1695 13.4647 16.7828 13.5181C16.7295 13.5181 16.6495 13.5181 16.5828 13.5181C15.1828 13.4647 14.0761 12.3314 14.0761 10.9181C14.0895 9.49138 15.2495 8.31805 16.6895 8.31805ZM20.3561 20.5047C18.3428 21.8514 15.0361 21.8514 13.0228 20.5047C11.2495 19.3314 11.2495 17.3847 13.0228 16.1981C15.0495 14.8514 18.3561 14.8514 20.3561 16.1981C22.1295 17.3847 22.1295 19.3181 20.3561 20.5047Z" fill="#1F2937"/>
</svg>
